<svg xmlns="http://www.w3.org/2000/svg" xmlns:xlink="http://www.w3.org/1999/xlink" xmlns:lucid="lucid" width="800" height="564"><g transform="translate(1739 386)" lucid:page-tab-id="0_0"><path d="M-1700-354a6 6 0 0 1 6-6h716.8a6 6 0 0 1 6 6v501.83a6 6 0 0 1-6 6H-1694a6 6 0 0 1-6-6z" fill="#f0f0ff"/><path d="M-1289.35-254a6 6 0 0 1 6-6h270a6 6 0 0 1 6 6V72.94a6 6 0 0 1-6 6h-270a6 6 0 0 1-6-6z" fill="#d3d3d2"/><path d="M-1274.25-259.93h10.03m5.02 0h10.04m5 0h10.05m5 0h10.04m5.02-.02h10.03m5 0h10.04m5.02 0h10.04m5 0h10.05m5.02 0h10.03m5.02-.02h10.03m5.02 0h10.03m5.02 0h10.04m5 0h10.05m5.03 0h10.03m5.02-.02h10.03m5.03 0h10.04m5 0h10.05m5.02 0h5l.95.07.9.22.88.35.8.5.72.6.6.72.5.8.36.88.22.9v4.98m0 4.97v9.93m0 4.97v9.94m0 4.96v9.94m0 4.97v9.94m0 4.97l.02 9.95m0 4.97v9.93m0 4.97v9.94m0 4.96v9.94m0 4.97v9.93m0 4.97v9.94m0 4.96l.02 9.94m0 4.97v9.93m0 4.97v9.94m0 4.97v9.93m0 4.97v9.93m0 4.97v9.94m0 4.96l.02 9.93m0 4.96v9.94m0 4.96v9.94m0 4.97v9.93m0 4.97V63m0 4.97v4.97l-.06.94-.22.92-.36.87-.5.8-.6.72-.72.6-.8.5-.87.35-.9.22h-5.03m-5 0h-10.05m-5.02 0h-10.03m-5.02 0h-10.03m-5.02 0l-10.03.02m-5.02 0h-10.04m-5 0h-10.04m-5.02 0h-10.03m-5 0h-10.04m-5.02 0h-10.04m-5 0h-10.05m-5.02 0l-10.03.02m-5.02 0h-10.03m-5.02 0h-10.03m-5.02 0h-10.04m-5 0h-10.05m-5.03 0l-10.03.02m-5.02 0h-10.03m-5.03 0h-5.02l-.94-.07-.9-.22-.87-.36-.8-.5-.72-.6-.6-.73-.5-.8-.35-.87-.22-.92V68.9m0-4.95V54m0-4.96V39.1m0-4.96V24.2m-.02-4.97V9.3m0-4.97V-5.6m0-4.97v-9.94m0-4.98v-9.93m0-4.98v-9.94m0-4.96v-9.94m0-4.97v-9.92m0-4.97v-9.93m0-4.97l-.02-9.93m0-4.97v-9.93m0-4.97v-9.94m0-4.97v-9.94m0-4.97v-9.95m0-4.96v-9.95m0-4.97l-.02-9.93m0-4.97v-9.94m0-4.96v-9.94m0-4.97v-9.93m0-4.97V-254l.07-.94.22-.9.36-.88.5-.8.6-.72.73-.6.8-.5.87-.37.9-.23h5.03" stroke="#3a414a" fill="none"/><path d="M-1662.35-254a6 6 0 0 1 6-6h270a6 6 0 0 1 6 6V72.94a6 6 0 0 1-6 6h-270a6 6 0 0 1-6-6z" fill="#bec7ff"/><path d="M-1647.25-259.93h10.03m5.02 0h10.04m5 0h10.05m5 0h10.04m5.02-.02h10.03m5 0h10.04m5.02 0h10.04m5 0h10.05m5.02 0h10.03m5.02-.02h10.03m5.02 0h10.03m5.02 0h10.04m5 0h10.05m5.03 0h10.03m5.02-.02h10.03m5.03 0h10.04m5 0h10.05m5.02 0h5l.95.07.9.22.88.35.8.5.72.6.6.72.5.8.36.88.22.9v4.98m0 4.97v9.93m0 4.97v9.94m0 4.96v9.94m0 4.97v9.94m0 4.97l.02 9.95m0 4.97v9.93m0 4.97v9.94m0 4.96v9.94m0 4.97v9.93m0 4.97v9.94m0 4.96l.02 9.94m0 4.97v9.93m0 4.97v9.94m0 4.97v9.93m0 4.97v9.93m0 4.97v9.94m0 4.96l.02 9.93m0 4.96v9.94m0 4.96v9.94m0 4.97v9.93m0 4.97V63m0 4.97v4.97l-.06.94-.22.92-.36.87-.5.8-.6.72-.72.6-.8.5-.87.35-.9.22h-5.03m-5 0h-10.05m-5.02 0h-10.03m-5.02 0h-10.03m-5.02 0l-10.03.02m-5.02 0h-10.04m-5 0h-10.04m-5.02 0h-10.03m-5 0h-10.04m-5.02 0h-10.04m-5 0h-10.05m-5.02 0l-10.03.02m-5.02 0h-10.03m-5.02 0h-10.03m-5.02 0h-10.04m-5 0h-10.05m-5.03 0l-10.03.02m-5.02 0h-10.03m-5.03 0h-5.02l-.94-.07-.9-.22-.87-.36-.8-.5-.72-.6-.6-.73-.5-.8-.35-.87-.22-.92V68.9m0-4.95V54m0-4.96V39.1m0-4.96V24.2m-.02-4.97V9.3m0-4.97V-5.6m0-4.97v-9.94m0-4.98v-9.93m0-4.98v-9.94m0-4.96v-9.94m0-4.97v-9.92m0-4.97v-9.93m0-4.97l-.02-9.93m0-4.97v-9.93m0-4.97v-9.94m0-4.97v-9.94m0-4.97v-9.95m0-4.96v-9.95m0-4.97l-.02-9.93m0-4.97v-9.94m0-4.96v-9.94m0-4.97v-9.93m0-4.97V-254l.07-.94.22-.9.36-.88.5-.8.6-.72.73-.6.8-.5.87-.37.9-.23h5.03" stroke="#3a414a" fill="none"/><path d="M-1620-174a6 6 0 0 1 6-6h188a6 6 0 0 1 6 6V21.48a6 6 0 0 1-6 6h-188a6 6 0 0 1-6-6z" stroke="#3a414a" fill="#fffcca"/><use xlink:href="#a" transform="matrix(1,0,0,1,-1608,-168) translate(34.657986111111114 14.218749999999998)"/><use xlink:href="#b" transform="matrix(1,0,0,1,-1608,-168) translate(98.66840277777777 14.218749999999998)"/><path d="M-1638-244.6a6 6 0 0 1 6-6h228a6 6 0 0 1 6 6v48a6 6 0 0 1-6 6h-228a6 6 0 0 1-6-6z" stroke="#000" stroke-opacity="0" fill="#fff" fill-opacity="0"/><use xlink:href="#c" transform="matrix(1,0,0,1,-1633,-245.61187251271258) translate(61.6579861111111 30.2734375)"/><path d="M-1241.04-96.15a6 6 0 0 1 6-6h188a6 6 0 0 1 6 6V21.48a6 6 0 0 1-6 6h-188a6 6 0 0 1-6-6z" stroke="#3a414a" fill="#fffcca"/><use xlink:href="#d" transform="matrix(1,0,0,1,-1229.0425805444982,-90.15261254608754) translate(2.6527777777778 57.28125)"/><use xlink:href="#e" transform="matrix(1,0,0,1,-1229.0425805444982,-90.15261254608754) translate(109.33680555555554 57.28125)"/><path d="M-1268.35-174a6 6 0 0 1 6-6h228a6 6 0 0 1 6 6v35.6a6 6 0 0 1-6 6h-228a6 6 0 0 1-6-6z" stroke="#3a414a" fill="#fffcca"/><use xlink:href="#f" transform="matrix(1,0,0,1,-1256.3475268481661,-168) translate(11.984375000000028 17.21875)"/><use xlink:href="#e" transform="matrix(1,0,0,1,-1256.3475268481661,-168) translate(140.00520833333331 17.21875)"/><path d="M-1271-244.6a6 6 0 0 1 6-6h228a6 6 0 0 1 6 6v48a6 6 0 0 1-6 6h-228a6 6 0 0 1-6-6z" stroke="#000" stroke-opacity="0" fill="#fff" fill-opacity="0"/><use xlink:href="#g" transform="matrix(1,0,0,1,-1266,-245.61187251271258) translate(54.990234374999986 30.2734375)"/><path d="M-1559.13-58.3c-9.73 0-17.62-7.9-17.62-17.63 0-7.8 4.77-14.36 12.17-16.77-.42-22.9 28.95-27.3 40.7-18.5 5.88-13.2 35.26-8.8 35.26 4.42 17.62-4.4 35.25 13.22 23.5 35.25 11.75 17.63 0 39.66-23.5 30.85-5.88 11.46-29.38 11.46-35.26 0-11.75 8.8-35.25 4.4-35.25-17.63z" stroke="#3a414a" fill="#e3fae3"/><use xlink:href="#h" transform="matrix(1,0,0,1,-1571.7548825579452,-115) translate(10.8263888888889 43.84375)"/><path d="M-1455.6-334a6 6 0 0 1 6-6h228a6 6 0 0 1 6 6v48a6 6 0 0 1-6 6h-228a6 6 0 0 1-6-6z" stroke="#000" stroke-opacity="0" fill="#fff" fill-opacity="0"/><g><use xlink:href="#i" transform="matrix(1,0,0,1,-1450.6,-335) translate(21.65147569444443 30.2734375)"/><use xlink:href="#j" transform="matrix(1,0,0,1,-1450.6,-335) translate(101.66449652777777 30.2734375)"/></g><defs><path fill="#3a414a" d="M473-1349c438-1 655 221 652 661C1122-268 945-8 532 0H162v-1349h311zm42 1193c308-4 416-205 418-532 2-330-131-509-459-505H353v1037h162" id="k"/><path fill="#3a414a" d="M385-1193v494h676v158H385V0H194v-1349h891v156H385" id="l"/><path fill="#3a414a" d="M736-142h380V0H134v-142h422v-1200H267v-142h469v1342" id="m"/><path fill="#3a414a" d="M615-1102c343 0 484 203 482 560-1 347-147 562-488 562-336 0-475-219-479-562-4-349 156-560 485-560zm-8 989c240 0 301-180 301-429 0-245-55-427-290-427-236 0-299 181-299 427 0 243 61 429 288 429" id="n"/><path fill="#3a414a" d="M1018 0H814c-67-224-138-444-200-673C552-442 476-224 407 0H204L21-1082h178c43 310 105 601 126 933 54-225 128-425 193-638h193c63 212 134 415 185 638 22-336 90-622 136-933h176" id="o"/><g id="a"><use transform="matrix(0.008680555555555554,0,0,0.008680555555555554,0,0)" xlink:href="#k"/><use transform="matrix(0.008680555555555554,0,0,0.008680555555555554,10.668402777777777,0)" xlink:href="#l"/><use transform="matrix(0.008680555555555554,0,0,0.008680555555555554,21.336805555555554,0)" xlink:href="#m"/><use transform="matrix(0.008680555555555554,0,0,0.008680555555555554,32.00520833333333,0)" xlink:href="#n"/><use transform="matrix(0.008680555555555554,0,0,0.008680555555555554,42.67361111111111,0)" xlink:href="#o"/></g><path fill="#3a414a" d="M912-211c-10-84-18-177-18-274v-864h172V0H836L316-1130c7 79 16 167 16 254V0H162v-1349h222" id="p"/><path fill="#3a414a" d="M865-914c-3-187-2-380-2-570h180v1261c0 76 1 155 6 223H877c-8-49-9-116-10-174h-5C801-44 708 26 530 26c-135 0-234-46-297-139s-95-232-95-419c0-377 131-566 392-566 176 0 271 63 335 184zm-286-51c-222 0-255 197-255 427 0 229 31 425 253 425 237 0 286-195 286-441 0-238-52-411-284-411" id="q"/><path fill="#3a414a" d="M617-1102c355 0 481 238 477 599H322c5 222 84 388 301 388 144 0 244-59 284-166l158 45C1002-72 854 20 623 20c-342 0-490-220-490-568 0-346 151-554 484-554zm291 461c-18-192-90-328-289-328-194 0-287 128-295 328h584" id="r"/><g id="b"><use transform="matrix(0.008680555555555554,0,0,0.008680555555555554,0,0)" xlink:href="#p"/><use transform="matrix(0.008680555555555554,0,0,0.008680555555555554,10.668402777777777,0)" xlink:href="#n"/><use transform="matrix(0.008680555555555554,0,0,0.008680555555555554,21.336805555555554,0)" xlink:href="#q"/><use transform="matrix(0.008680555555555554,0,0,0.008680555555555554,32.00520833333333,0)" xlink:href="#r"/></g><path fill="#3a414a" d="M102-681c0-398 126-689 513-689 165 0 291 58 379 174s132 287 132 515c-1 318-88 554-298 657-123 61-317 58-438-3-206-104-288-341-288-654zm749 406c94-160 97-656-5-807-57-85-130-132-231-132-104 0-178 47-234 132-101 153-99 655 1 809 57 89 130 138 232 138 109 0 184-49 237-140" id="s"/><path fill="#3a414a" d="M706-1102c241 0 344 136 343 381V0H868v-695c1-168-57-273-220-268-190 6-283 138-283 336V0H185c-3-360 6-732-6-1082h170c4 54 7 126 8 185h3c63-121 164-204 346-205" id="t"/><path fill="#3a414a" d="M334-464v-160h560v160H334" id="u"/><path fill="#3a414a" d="M650-1214c-281 0-336 244-336 533 0 295 60 546 347 546 188 0 263-142 322-282l159 65C1058-155 935 20 659 20c-401 0-546-295-546-701 0-407 135-689 536-689 264 0 391 146 466 335l-168 65c-47-129-127-244-297-244" id="v"/><path fill="#3a414a" d="M648-963c-190 6-283 138-283 336V0H185v-1484h181c-2 197 6 404-9 587h3c62-120 159-205 339-205 242 0 351 135 350 381V0H868v-695c1-168-57-273-220-268" id="w"/><path fill="#3a414a" d="M1000-272c3 95 12 159 101 161 21 0 41-3 59-7V-6c-44 10-86 16-139 16-141 2-191-84-197-217h-6C748-76 648 20 446 20c-207 0-318-120-318-322 0-266 194-348 454-354l236-4c12-191-40-305-222-305-140 0-220 47-232 172l-188-17c33-204 181-292 423-292 255 0 401 118 401 364v466zm-683-27c0 109 63 184 175 182 166-3 259-96 306-217 24-65 20-120 20-200-232 7-501-28-501 235" id="x"/><path fill="#3a414a" d="M745-142h380V0H143v-142h422v-798H246v-142h499v940zM545-1292v-192h200v192H545" id="y"/><g id="c"><use transform="matrix(0.010850694444444444,0,0,0.010850694444444444,0,0)" xlink:href="#s"/><use transform="matrix(0.010850694444444444,0,0,0.010850694444444444,13.335503472222221,0)" xlink:href="#t"/><use transform="matrix(0.010850694444444444,0,0,0.010850694444444444,26.671006944444443,0)" xlink:href="#u"/><use transform="matrix(0.010850694444444444,0,0,0.010850694444444444,40.006510416666664,0)" xlink:href="#v"/><use transform="matrix(0.010850694444444444,0,0,0.010850694444444444,53.342013888888886,0)" xlink:href="#w"/><use transform="matrix(0.010850694444444444,0,0,0.010850694444444444,66.67751736111111,0)" xlink:href="#x"/><use transform="matrix(0.010850694444444444,0,0,0.010850694444444444,80.01302083333334,0)" xlink:href="#y"/><use transform="matrix(0.010850694444444444,0,0,0.010850694444444444,93.34852430555557,0)" xlink:href="#t"/></g><path fill="#3a414a" d="M614-1226c-167 1-283 53-283 213 0 183 186 193 334 234 230 63 463 120 463 409 0 286-219 387-518 390C309 23 131-98 79-338l185-37c34 165 149 248 351 246 184-2 324-58 324-238 0-203-207-221-372-266-210-57-422-111-422-377 0-267 201-356 470-360 279-5 430 101 480 324l-188 33c-28-141-121-215-293-213" id="z"/><path fill="#3a414a" d="M1048-32c-2 300-135 456-433 456-222-1-358-88-400-267l184-25c22 99 100 157 222 156 184-2 248-125 248-315 0-64 3-133-2-194C807-100 706-13 524-12c-306 0-381-228-381-537 0-318 85-550 400-550 164 0 271 83 325 202h3c1-60 3-134 12-185h171c-13 339-4 702-6 1050zM585-145c210-8 284-178 284-406 0-192-52-331-177-392-33-16-69-22-104-22-223 2-259 184-259 414 0 229 31 415 256 406" id="A"/><path fill="#3a414a" d="M682 16c-209 0-323-80-324-285v-671H190v-142h170l58-282h120v282h432v142H538v652c2 114 60 155 182 155 106 0 209-16 297-34v137C921-4 806 16 682 16" id="B"/><path fill="#3a414a" d="M839-1102c70 0 148 7 206 17v167c-112-18-268-36-363 15-129 69-208 203-208 395V0H294c-10-367 32-789-52-1082h171c21 75 41 161 48 250h5c67-152 152-270 373-270" id="C"/><path fill="#3a414a" d="M168 279c222 39 310-114 368-290L66-1082h192c120 299 249 590 362 896 115-301 235-597 351-896h190L705 0c-65 164-130 320-275 396-67 36-177 35-262 18V279" id="D"/><g id="d"><use transform="matrix(0.008680555555555554,0,0,0.008680555555555554,0,0)" xlink:href="#z"/><use transform="matrix(0.008680555555555554,0,0,0.008680555555555554,10.668402777777777,0)" xlink:href="#y"/><use transform="matrix(0.008680555555555554,0,0,0.008680555555555554,21.336805555555554,0)" xlink:href="#A"/><use transform="matrix(0.008680555555555554,0,0,0.008680555555555554,32.00520833333333,0)" xlink:href="#t"/><use transform="matrix(0.008680555555555554,0,0,0.008680555555555554,42.67361111111111,0)" xlink:href="#x"/><use transform="matrix(0.008680555555555554,0,0,0.008680555555555554,53.342013888888886,0)" xlink:href="#B"/><use transform="matrix(0.008680555555555554,0,0,0.008680555555555554,64.01041666666666,0)" xlink:href="#n"/><use transform="matrix(0.008680555555555554,0,0,0.008680555555555554,74.67881944444443,0)" xlink:href="#C"/><use transform="matrix(0.008680555555555554,0,0,0.008680555555555554,85.3472222222222,0)" xlink:href="#D"/></g><path fill="#3a414a" d="M715 0H502L69-1082h202c94 253 197 500 285 758 19 57 36 126 52 183 96-335 234-626 350-941h201" id="E"/><g id="e"><use transform="matrix(0.008680555555555554,0,0,0.008680555555555554,0,0)" xlink:href="#z"/><use transform="matrix(0.008680555555555554,0,0,0.008680555555555554,10.668402777777777,0)" xlink:href="#r"/><use transform="matrix(0.008680555555555554,0,0,0.008680555555555554,21.336805555555554,0)" xlink:href="#C"/><use transform="matrix(0.008680555555555554,0,0,0.008680555555555554,32.00520833333333,0)" xlink:href="#E"/><use transform="matrix(0.008680555555555554,0,0,0.008680555555555554,42.67361111111111,0)" xlink:href="#r"/><use transform="matrix(0.008680555555555554,0,0,0.008680555555555554,53.342013888888886,0)" xlink:href="#C"/></g><path fill="#3a414a" d="M162 0v-1349h919v156H353v422h668v154H353v461h769V0H162" id="F"/><path fill="#3a414a" d="M873-819c-18-114-119-146-250-146-163 0-245 50-245 151 0 151 170 148 294 185 182 54 388 94 388 320 0 240-189 325-439 329-245 4-410-69-454-268l159-31c24 133 136 168 295 165 144-2 270-31 270-171 0-164-195-160-331-202-167-52-350-87-350-299 0-218 173-315 413-313 220 2 373 77 412 260" id="G"/><path fill="#3a414a" d="M904-1102c199 0 220 177 220 381V0H956v-686c-3-114 0-215-60-264-70-33-125-4-158 71-26 56-39 140-39 252V0H531v-686c-3-114-1-215-61-264-78-41-136 24-157 84-24 69-39 159-39 259V0H105c-3-360 6-732-6-1082h149c6 50 3 123 8 175 36-100 83-195 216-195 135 0 166 79 196 196 42-105 93-196 236-196" id="H"/><g id="f"><use transform="matrix(0.008680555555555554,0,0,0.008680555555555554,0,0)" xlink:href="#F"/><use transform="matrix(0.008680555555555554,0,0,0.008680555555555554,10.668402777777777,0)" xlink:href="#t"/><use transform="matrix(0.008680555555555554,0,0,0.008680555555555554,21.336805555555554,0)" xlink:href="#q"/><use transform="matrix(0.008680555555555554,0,0,0.008680555555555554,32.00520833333333,0)" xlink:href="#n"/><use transform="matrix(0.008680555555555554,0,0,0.008680555555555554,42.67361111111111,0)" xlink:href="#C"/><use transform="matrix(0.008680555555555554,0,0,0.008680555555555554,53.342013888888886,0)" xlink:href="#G"/><use transform="matrix(0.008680555555555554,0,0,0.008680555555555554,64.01041666666666,0)" xlink:href="#r"/><use transform="matrix(0.008680555555555554,0,0,0.008680555555555554,74.67881944444443,0)" xlink:href="#H"/><use transform="matrix(0.008680555555555554,0,0,0.008680555555555554,85.3472222222222,0)" xlink:href="#r"/><use transform="matrix(0.008680555555555554,0,0,0.008680555555555554,96.01562499999997,0)" xlink:href="#t"/><use transform="matrix(0.008680555555555554,0,0,0.008680555555555554,106.68402777777774,0)" xlink:href="#B"/></g><path fill="#3a414a" d="M839-1335c-182-6-269 67-259 253h491v142H580V0H400v-940H138v-142h262c-15-293 132-408 418-402 94 2 200 7 281 21v145c-75-10-177-14-260-17" id="I"/><g id="g"><use transform="matrix(0.010850694444444444,0,0,0.010850694444444444,0,0)" xlink:href="#s"/><use transform="matrix(0.010850694444444444,0,0,0.010850694444444444,13.335503472222221,0)" xlink:href="#I"/><use transform="matrix(0.010850694444444444,0,0,0.010850694444444444,26.671006944444443,0)" xlink:href="#I"/><use transform="matrix(0.010850694444444444,0,0,0.010850694444444444,40.006510416666664,0)" xlink:href="#u"/><use transform="matrix(0.010850694444444444,0,0,0.010850694444444444,53.342013888888886,0)" xlink:href="#v"/><use transform="matrix(0.010850694444444444,0,0,0.010850694444444444,66.67751736111111,0)" xlink:href="#w"/><use transform="matrix(0.010850694444444444,0,0,0.010850694444444444,80.01302083333334,0)" xlink:href="#x"/><use transform="matrix(0.010850694444444444,0,0,0.010850694444444444,93.34852430555557,0)" xlink:href="#y"/><use transform="matrix(0.010850694444444444,0,0,0.010850694444444444,106.6840277777778,0)" xlink:href="#t"/></g><path fill="#3a414a" d="M1034 0L896-382H333L196 0H0l510-1349h217L1228 0h-194zM847-531c-77-225-157-447-231-674-69 231-154 451-232 674h463" id="J"/><path fill="#3a414a" d="M528 20c-247 0-343-132-343-381v-721h180v686c-4 177 45 284 224 277 194-8 279-136 279-336v-627h181c3 360-6 732 6 1082H885c-4-54-7-126-8-185h-3C809-64 714 20 528 20" id="K"/><path fill="#3a414a" d="M631 20c-350 0-501-215-501-562 0-355 162-560 502-560 250 0 399 118 446 323l-192 14c-23-124-109-196-262-196-242 0-305 171-305 415 1 245 61 427 304 427 151 0 248-77 267-215l190 12C1039-107 883 20 631 20" id="L"/><g id="h"><use transform="matrix(0.008680555555555554,0,0,0.008680555555555554,0,0)" xlink:href="#J"/><use transform="matrix(0.008680555555555554,0,0,0.008680555555555554,10.668402777777777,0)" xlink:href="#K"/><use transform="matrix(0.008680555555555554,0,0,0.008680555555555554,21.336805555555554,0)" xlink:href="#L"/><use transform="matrix(0.008680555555555554,0,0,0.008680555555555554,32.00520833333333,0)" xlink:href="#B"/><use transform="matrix(0.008680555555555554,0,0,0.008680555555555554,42.67361111111111,0)" xlink:href="#y"/><use transform="matrix(0.008680555555555554,0,0,0.008680555555555554,53.342013888888886,0)" xlink:href="#n"/><use transform="matrix(0.008680555555555554,0,0,0.008680555555555554,64.01041666666666,0)" xlink:href="#t"/><use transform="matrix(0.008680555555555554,0,0,0.008680555555555554,74.67881944444443,0)" xlink:href="#G"/></g><path fill="#3a414a" d="M496-1349c439 0 656 222 653 664C1146-265 969 0 556 0H135v-1349h361zm36 1121c245-7 319-187 320-457 1-273-91-439-361-436h-61v893h102" id="M"/><path fill="#3a414a" d="M462-1121v384h621v228H462V0H167v-1349h939v228H462" id="N"/><path fill="#3a414a" d="M794-190h353V0H118v-190h395v-1104H223v-190h571v1294" id="O"/><path fill="#3a414a" d="M616-1102c361 0 521 202 521 560 0 354-171 562-527 562C259 20 92-192 92-542c0-351 169-560 524-560zm-9 930c200-2 236-165 236-370 0-199-27-367-223-367-195 0-233 146-233 367 0 129 18 223 55 282s92 88 165 88" id="P"/><path fill="#3a414a" d="M1028 0H784c-56-191-119-378-170-573C562-377 495-191 437 0H194L11-1082h228c32 239 67 472 95 714 4 40 7 80 7 119 53-195 119-378 177-568h193c56 190 120 371 169 568-1-79 11-158 21-226l91-607h226" id="Q"/><g id="i"><use transform="matrix(0.010850694444444444,0,0,0.010850694444444444,0,0)" xlink:href="#M"/><use transform="matrix(0.010850694444444444,0,0,0.010850694444444444,13.335503472222221,0)" xlink:href="#N"/><use transform="matrix(0.010850694444444444,0,0,0.010850694444444444,26.671006944444443,0)" xlink:href="#O"/><use transform="matrix(0.010850694444444444,0,0,0.010850694444444444,40.006510416666664,0)" xlink:href="#P"/><use transform="matrix(0.010850694444444444,0,0,0.010850694444444444,53.342013888888886,0)" xlink:href="#Q"/></g><path fill="#3a414a" d="M616-1349c316 3 526 118 526 426 0 301-201 442-514 447H431V0H136v-1349h480zm-25 646c164 1 254-62 254-215 0-157-99-200-262-202H431v417h160" id="R"/><path fill="#3a414a" d="M875-1102c70 0 148 7 206 17v237c-110-17-267-37-359 15-123 69-192 207-192 395V0H250c-10-367 32-789-52-1082h271c19 69 36 149 46 228h4c52-151 151-250 356-248" id="S"/><path fill="#3a414a" d="M711 13c-250 0-386-99-385-349l2-556H161v-190h181l88-282h176v282h385v190H606v530c-10 130 45 186 174 184 91-2 176-11 255-27v186C933-1 833 13 711 13" id="T"/><path fill="#3a414a" d="M1109-360C1066-122 902 20 624 20c-347 0-514-209-514-555 0-353 168-567 518-567 270 0 425 136 473 361l-283 14c-16-106-75-183-196-182-75 0-130 31-165 93s-52 152-52 270c0 249 74 374 221 374 120 0 188-82 201-201" id="U"/><g id="j"><use transform="matrix(0.010850694444444444,0,0,0.010850694444444444,0,0)" xlink:href="#R"/><use transform="matrix(0.010850694444444444,0,0,0.010850694444444444,13.335503472222221,0)" xlink:href="#S"/><use transform="matrix(0.010850694444444444,0,0,0.010850694444444444,26.671006944444443,0)" xlink:href="#P"/><use transform="matrix(0.010850694444444444,0,0,0.010850694444444444,40.006510416666664,0)" xlink:href="#T"/><use transform="matrix(0.010850694444444444,0,0,0.010850694444444444,53.342013888888886,0)" xlink:href="#P"/><use transform="matrix(0.010850694444444444,0,0,0.010850694444444444,66.67751736111111,0)" xlink:href="#U"/><use transform="matrix(0.010850694444444444,0,0,0.010850694444444444,80.01302083333334,0)" xlink:href="#P"/><use transform="matrix(0.010850694444444444,0,0,0.010850694444444444,93.34852430555557,0)" xlink:href="#O"/></g></defs></g></svg>